<?xml version="1.0" standalone="no"?>
<!DOCTYPE svg PUBLIC "-//W3C//DTD SVG 20010904//EN"
 "http://www.w3.org/TR/2001/REC-SVG-20010904/DTD/svg10.dtd">
<svg version="1.0" xmlns="http://www.w3.org/2000/svg"
 width="640.000000pt" height="640.000000pt" viewBox="0 0 640.000000 640.000000"
 preserveAspectRatio="xMidYMid meet">
<metadata>
Created by potrace 1.11, written by Peter Selinger 2001-2013
</metadata>
<g transform="translate(0.000000,640.000000) scale(0.100000,-0.100000)"
fill="#000000" stroke="none">
<path d="M2935 4960 c-1269 -225 -1239 -218 -1296 -290 -56 -71 -58 -103 -15
-347 21 -120 46 -234 57 -254 20 -40 79 -96 116 -110 36 -13 120 -11 209 6 50
9 81 11 89 5 7 -5 15 -6 21 -1 8 8 186 26 374 37 73 5 76 4 123 -31 26 -20 52
-46 57 -58 5 -12 41 -207 81 -434 55 -318 70 -423 65 -460 -7 -44 -15 -55 -91
-129 -137 -133 -137 -133 -541 -204 -447 -79 -436 -76 -484 -111 -46 -33 -90
-114 -90 -164 0 -38 96 -589 110 -629 25 -72 95 -129 177 -141 26 -5 240 29
697 110 362 64 662 112 666 108 4 -4 90 -190 192 -413 143 -311 190 -423 202
-484 9 -43 16 -80 16 -82 0 -2 16 -22 36 -44 32 -36 41 -40 83 -40 46 0 46 0
63 48 18 50 18 58 -4 187 -12 70 -12 135 5 510 11 237 21 431 22 433 2 2 270
50 596 107 327 58 615 110 641 116 92 21 159 93 174 186 4 25 -12 135 -46 328
-58 333 -74 379 -146 425 -75 47 -95 46 -499 -25 -203 -36 -380 -65 -391 -65
-12 0 -44 6 -70 14 -27 8 -76 22 -109 31 -68 19 -135 59 -182 107 -32 33 -32
34 -109 472 l-78 440 25 45 c28 51 93 90 185 112 27 6 69 20 94 30 25 10 115
30 200 44 169 29 215 47 261 105 56 70 58 103 15 347 -42 244 -59 288 -129
338 -77 55 -61 57 -1372 -175z"/>
</g>
</svg>
